<svg xmlns="http://www.w3.org/2000/svg" width="22" height="22" fill="none"><circle cx="11" cy="11" r="11" fill="#000"/><g clip-path="url(#a)"><path fill="url(#b)" d="m16.443 13.926-1.816 1.918a.422.422 0 0 1-.308.132H5.711a.213.213 0 0 1-.194-.125.205.205 0 0 1 .04-.224l1.817-1.919a.422.422 0 0 1 .308-.132h8.607a.213.213 0 0 1 .194.125.205.205 0 0 1-.04.225Zm-1.816-3.863a.422.422 0 0 0-.308-.132H5.711a.213.213 0 0 0-.194.125.205.205 0 0 0 .04.224L7.374 12.2a.422.422 0 0 0 .308.132h8.607a.213.213 0 0 0 .194-.125.205.205 0 0 0-.04-.225l-1.816-1.918ZM5.711 8.685h8.608a.428.428 0 0 0 .308-.132l1.816-1.918a.206.206 0 0 0-.038-.315.213.213 0 0 0-.116-.034H7.681a.427.427 0 0 0-.307.132L5.557 8.335a.206.206 0 0 0 .154.35Z"/></g><defs><linearGradient id="b" x1="6.429" x2="15.303" y1="16.207" y2="6.05" gradientUnits="userSpaceOnUse"><stop offset=".08" stop-color="#9945FF"/><stop offset=".3" stop-color="#8752F3"/><stop offset=".5" stop-color="#5497D5"/><stop offset=".6" stop-color="#43B4CA"/><stop offset=".72" stop-color="#28E0B9"/><stop offset=".97" stop-color="#19FB9B"/></linearGradient><clipPath id="a"><path fill="#fff" d="M5.5 6.286h11v9.69h-11z"/></clipPath></defs></svg>